<svg width="377px" height="148px" viewBox="0 0 377 148" version="1.1" xmlns="http://www.w3.org/2000/svg" xmlns:xlink="http://www.w3.org/1999/xlink">
    <g id="Page-1" stroke="none" stroke-width="1" fill="none" fill-rule="evenodd">
        <g id="spok_hor_flat_reverse" fill="#FFFFFF">
            <path d="M162.279,63.132 C160.786,59.738 157.527,56.615 153.589,56.615 C149.787,56.615 145.713,59.602 145.713,63.676 C145.713,69.515 153.046,71.687 160.514,74.81 C167.982,77.933 175.315,82.414 175.315,93.142 C175.315,105.227 165.538,113.917 153.725,113.917 C142.998,113.917 134.579,107.807 131.184,97.758 L140.825,93.685 C143.541,99.659 146.664,103.869 153.86,103.869 C159.699,103.869 164.18,99.931 164.18,94.092 C164.18,79.835 135.393,84.723 135.393,64.626 C135.393,53.899 144.083,46.567 154.404,46.567 C161.736,46.567 168.525,51.726 171.377,58.38 L162.279,63.132" id="Fill-1"></path>
            <path d="M190.93,79.563 C190.93,92.055 198.262,103.869 211.841,103.869 C225.827,103.869 233.16,92.598 233.16,79.699 C233.16,66.935 225.148,56.615 211.705,56.615 C199.077,56.615 190.93,67.613 190.93,79.563 Z M191.473,57.429 L191.744,57.429 C197.04,50.368 204.916,46.567 213.742,46.567 C232.481,46.567 244.294,62.725 244.294,80.378 C244.294,98.573 232.752,113.917 213.606,113.917 C204.916,113.917 196.904,110.115 191.744,103.19 L191.473,103.19 L191.473,148 L180.61,148 L180.61,48.332 L191.473,48.332 L191.473,57.429 L191.473,57.429 Z" id="Fill-2"></path>
            <path d="M260.53,80.242 C260.53,93.277 269.764,103.869 283.207,103.869 C296.65,103.869 305.883,93.277 305.883,80.242 C305.883,67.342 296.65,56.615 283.207,56.615 C269.764,56.615 260.53,67.342 260.53,80.242 Z M249.667,80.378 C249.667,61.639 264.468,46.567 283.207,46.567 C301.945,46.567 316.747,61.639 316.747,80.378 C316.747,99.116 301.81,113.917 283.207,113.917 C264.604,113.917 249.667,99.116 249.667,80.378 L249.667,80.378 Z" id="Fill-3"></path>
            <polyline id="Fill-4" points="333.919 71.959 357.139 48.332 371.668 48.332 344.375 75.489 376.828 112.152 362.435 112.152 336.771 83.093 333.919 85.945 333.919 112.152 323.056 112.152 323.056 0.127 333.919 0.127 333.919 71.959"></polyline>
            <polygon id="Fill-5" points="263.774 38.529 302.64 38.529 302.64 29.528 263.774 29.528"></polygon>
            <polyline id="Fill-6" points="88.256 35.715 91.027 63.586 98.376 73.382 100.013 61.68 88.256 35.715"></polyline>
            <polyline id="Fill-7" points="97.902 76.774 91.488 68.225 94.651 100.033 97.902 76.774"></polyline>
            <path d="M72.382,120.178 L62.087,108.671 L51.679,108.063 L69.483,120.839 C70.458,120.642 71.425,120.423 72.382,120.178" id="Fill-8"></path>
            <polyline id="Fill-9" points="51.637 96.991 24.851 88.811 48.008 105.429 59.803 106.118 51.637 96.991"></polyline>
            <path d="M17.64,86.609 L2.889,82.105 C5.536,90.175 9.902,97.461 15.562,103.533 L43.499,105.166 L17.64,86.609" id="Fill-10"></path>
            <path d="M102.501,61.321 L112.546,83.507 C114.718,77.42 115.91,70.867 115.91,64.034 C115.91,52.379 112.457,41.538 106.537,32.45 L102.501,61.321" id="Fill-11"></path>
            <path d="M65.506,108.871 L74.968,119.446 C81.413,117.47 87.381,114.404 92.653,110.458 L65.506,108.871" id="Fill-12"></path>
            <path d="M2.054,79.325 L11.515,82.214 L0.989,74.661 C1.282,76.239 1.636,77.795 2.054,79.325" id="Fill-13"></path>
            <polyline id="Fill-14" points="56.096 98.353 63.222 106.318 86.668 107.688 56.096 98.353"></polyline>
            <path d="M52.988,94.879 L92.924,107.074 L88.69,64.496 L45.825,7.361 C27.344,11.297 12.13,24.039 4.774,40.989 L52.988,94.879" id="Fill-15"></path>
            <path d="M99.957,79.514 L96.014,107.72 C101.243,103.16 105.655,97.688 108.978,91.536 L99.957,79.514" id="Fill-16"></path>
            <path d="M18.726,84.416 L48.529,93.517 L3.764,43.481 C1.339,49.87 0,56.794 0,64.034 C0,66.503 0.172,68.93 0.472,71.317 L18.726,84.416" id="Fill-17"></path>
            <path d="M47.169,107.799 L18.114,106.101 C28.501,115.942 42.518,121.989 57.955,121.989 C60.731,121.989 63.457,121.782 66.128,121.404 L47.169,107.799" id="Fill-18"></path>
            <path d="M88.229,59.857 L85.146,28.846 L76.168,9.016 C70.438,7.121 64.32,6.08 57.955,6.08 C54.724,6.08 51.559,6.357 48.472,6.865 L88.229,59.857" id="Fill-19"></path>
            <path d="M101.875,65.795 L100.432,76.122 L110.202,89.144 C110.595,88.327 110.968,87.5 111.324,86.662 L101.875,65.795" id="Fill-20"></path>
            <path d="M87.51,28.212 L100.638,57.207 L104.509,29.518 C99.589,22.893 93.286,17.36 86.031,13.334 L87.51,28.212" id="Fill-21"></path>
            <path d="M84.4,21.343 L83.471,11.994 C82.124,11.333 80.745,10.73 79.342,10.172 L84.4,21.343" id="Fill-22"></path>
            <text id="SM" font-family="LucidaGrande, Lucida Grande" font-size="12" font-weight="normal" letter-spacing="-0.0001">
                <tspan x="108.81" y="24.9790875">SM</tspan>
            </text>
        </g>
    </g>
</svg>